<svg width="18" height="12" viewBox="0 0 18 12" fill="none" xmlns="http://www.w3.org/2000/svg">
<path d="M0.75 4.77295C0.335786 4.77295 0 5.10874 0 5.52295C0 5.93716 0.335786 6.27295 0.75 6.27295V5.52295V4.77295ZM17.2803 6.05328C17.5732 5.76039 17.5732 5.28551 17.2803 4.99262L12.5074 0.219648C12.2145 -0.073245 11.7396 -0.073245 11.4467 0.219648C11.1538 0.512542 11.1538 0.987415 11.4467 1.28031L15.6893 5.52295L11.4467 9.76559C11.1538 10.0585 11.1538 10.5334 11.4467 10.8263C11.7396 11.1191 12.2145 11.1191 12.5074 10.8263L17.2803 6.05328ZM0.75 5.52295V6.27295H16.75V5.52295V4.77295H0.75V5.52295Z" fill="white"/>
</svg>
