<svg width="148" height="36" viewBox="0 0 148 36" fill="none" xmlns="http://www.w3.org/2000/svg">
  <rect width="148" height="36" rx="8" fill="#131722"/>
  <path d="M24.628 25.288C20.444 25.288 17.596 22.36 17.596 18C17.596 13.64 20.444 10.712 24.628 10.712C28.812 10.712 31.66 13.64 31.66 18C31.66 22.36 28.812 25.288 24.628 25.288ZM24.628 22.856C27.24 22.856 28.848 20.976 28.848 18C28.848 15.024 27.24 13.144 24.628 13.144C22.016 13.144 20.408 15.024 20.408 18C20.408 20.976 22.016 22.856 24.628 22.856Z" fill="#FFFFFF"/>
  <path d="M35.3705 25V11H38.1585L44.0865 20.12V11H46.8505V25H44.0625L38.1345 15.904V25H35.3705Z" fill="#FFFFFF"/>
  <path d="M50.4769 25V11H53.2649V22.544H59.6009V25H50.4769Z" fill="#FFFFFF"/>
  <path d="M61.9897 25V11H64.7777V25H61.9897Z" fill="#FFFFFF"/>
  <path d="M68.4041 25V11H71.1921L77.1201 20.12V11H79.8841V25H77.0961L71.1681 15.904V25H68.4041Z" fill="#FFFFFF"/>
  <path d="M83.5105 25V11H93.0465V13.432H86.2985V16.592H92.4425V18.976H86.2985V22.568H93.0465V25H83.5105Z" fill="#FFFFFF"/>
  <path d="M103.438 25.288C101.382 25.288 99.7175 24.732 98.4455 23.62C97.1735 22.492 96.5055 20.928 96.4415 18.928H99.2295C99.3255 20.024 99.6935 20.88 100.334 21.496C100.99 22.096 101.95 22.396 103.214 22.396C104.23 22.396 105.01 22.188 105.554 21.772C106.114 21.356 106.394 20.8 106.394 20.104C106.394 19.52 106.194 19.072 105.794 18.76C105.394 18.432 104.782 18.152 103.958 17.92L101.41 17.2C100.09 16.832 99.1095 16.304 98.4695 15.616C97.8295 14.912 97.5095 14.016 97.5095 12.928C97.5095 11.696 97.9735 10.696 98.9015 9.928C99.8455 9.144 101.11 8.752 102.694 8.752C104.47 8.752 105.886 9.24 106.946 10.216C108.006 11.192 108.614 12.512 108.77 14.176H105.958C105.83 13.464 105.526 12.888 105.046 12.448C104.582 11.992 103.91 11.764 103.03 11.764C102.214 11.764 101.574 11.94 101.11 12.292C100.646 12.628 100.414 13.08 100.414 13.648C100.414 14.12 100.582 14.504 100.918 14.8C101.254 15.08 101.79 15.32 102.526 15.52L105.074 16.24C106.602 16.672 107.686 17.24 108.326 17.944C108.966 18.648 109.286 19.568 109.286 20.704C109.286 21.584 109.046 22.384 108.566 23.104C108.102 23.808 107.422 24.368 106.526 24.784C105.646 25.088 104.617 25.256 103.438 25.288Z" fill="#FFFFFF"/>
  <path d="M118.594 25.288C114.41 25.288 111.562 22.36 111.562 18C111.562 13.64 114.41 10.712 118.594 10.712C122.778 10.712 125.626 13.64 125.626 18C125.626 22.36 122.778 25.288 118.594 25.288ZM118.594 22.856C121.206 22.856 122.814 20.976 122.814 18C122.814 15.024 121.206 13.144 118.594 13.144C115.982 13.144 114.374 15.024 114.374 18C114.374 20.976 115.982 22.856 118.594 22.856Z" fill="#FFFFFF"/>
  <path d="M129.336 25V11H132.124L138.052 20.12V11H140.816V25H138.028L132.1 15.904V25H129.336Z" fill="#FFFFFF"/>
</svg>
