<svg width="41" height="41" viewBox="0 0 41 41" fill="none" xmlns="http://www.w3.org/2000/svg">
<path fill-rule="evenodd" clip-rule="evenodd" d="M0.5 20.5C0.5 9.45431 9.45431 0.5 20.5 0.5C31.5457 0.5 40.5 9.45431 40.5 20.5C40.5 31.5457 31.5457 40.5 20.5 40.5C9.45431 40.5 0.5 31.5457 0.5 20.5Z" stroke="#13172A"/>
<path fill-rule="evenodd" clip-rule="evenodd" d="M20.5186 13.834L20.5 20.4656C20.5682 20.4801 20.6352 20.4699 20.7034 20.4542L31.8332 14.9519C31.8332 14.3008 31.0048 13.834 30.5374 13.834H20.5186Z" fill="#13172A"/>
<path fill-rule="evenodd" clip-rule="evenodd" d="M20.5 21.9391C20.8333 21.9391 20.9274 21.896 20.9274 21.896C20.5282 22.068 31.8333 16.7812 31.8333 16.7812V26.3547C31.8333 27.3968 30.8858 27.8339 29.8203 27.8339H20.5V21.9391Z" fill="#13172A"/>
<path fill-rule="evenodd" clip-rule="evenodd" d="M20.5352 13.834L20.5013 20.4656C20.4331 20.4801 20.3661 20.4699 20.2979 20.4542L9.1681 14.9519C9.1681 14.3008 9.99647 13.834 10.4639 13.834H20.5352Z" fill="#13172A"/>
<path fill-rule="evenodd" clip-rule="evenodd" d="M20.502 21.9391C20.1686 21.9391 20.0746 21.896 20.0746 21.896C20.4737 22.068 9.16862 16.7812 9.16862 16.7812V26.3547C9.16862 27.3968 10.1162 27.8339 11.1816 27.8339H20.502V21.9391Z" fill="#13172A"/>
</svg>
