<svg width="1264" height="15" viewBox="0 0 1264 15" fill="none" xmlns="http://www.w3.org/2000/svg">
<path d="M1 6.36377C0.447715 6.36377 4.82823e-08 6.81148 0 7.36377C-4.82823e-08 7.91605 0.447715 8.36377 1 8.36377L1 7.36377L1 6.36377ZM1263.71 8.07099C1264.1 7.68046 1264.1 7.0473 1263.71 6.65677L1257.34 0.292812C1256.95 -0.0977129 1256.32 -0.0977129 1255.93 0.292811C1255.54 0.683336 1255.54 1.3165 1255.93 1.70703L1261.59 7.36388L1255.93 13.0207C1255.54 13.4113 1255.54 14.0444 1255.93 14.4349C1256.32 14.8255 1256.95 14.8255 1257.34 14.4349L1263.71 8.07099ZM1 7.36377L1 8.36377L1263 8.36388L1263 7.36388L1263 6.36388L1 6.36377L1 7.36377Z" fill="url(#paint0_linear_103_2446)"/>
<defs>
<linearGradient id="paint0_linear_103_2446" x1="1075.48" y1="7.86463" x2="8.74313" y2="-83.0193" gradientUnits="userSpaceOnUse">
<stop stop-color="#C51535"/>
<stop offset="0.639423" stop-color="#F9BE59"/>
<stop offset="0.706731" stop-color="#F9BE59"/>
</linearGradient>
</defs>
</svg>
