<svg width="33" height="36" viewBox="0 0 33 36" fill="none" xmlns="http://www.w3.org/2000/svg">
<path d="M21.6667 12.5L14.3333 19.8333L10.6667 16.1667M30.8333 14.6359C30.8333 26.6777 21.7252 32.0764 17.8639 33.8242L17.8591 33.8263C17.453 34.0102 17.2494 34.1023 16.7879 34.1815C16.4957 34.2317 15.8395 34.2317 15.5473 34.1815C15.0839 34.102 14.8783 34.0095 14.4689 33.8242C10.6076 32.0765 1.5 26.6777 1.5 14.6359V7.36702C1.5 5.3135 1.5 4.28597 1.89964 3.50163C2.25118 2.8117 2.8117 2.25118 3.50163 1.89964C4.28597 1.5 5.3135 1.5 7.36702 1.5H24.967C27.0206 1.5 28.0459 1.5 28.8302 1.89964C29.5202 2.25118 30.0825 2.8117 30.4341 3.50163C30.8333 4.2852 30.8333 5.31149 30.8333 7.361V14.6359Z" stroke="#C51535" stroke-width="3" stroke-linecap="round" stroke-linejoin="round"/>
</svg>
