<svg width="41" height="41" viewBox="0 0 41 41" fill="none" xmlns="http://www.w3.org/2000/svg">
<path fill-rule="evenodd" clip-rule="evenodd" d="M20.5 0.499999C31.5457 0.499999 40.5 9.4543 40.5 20.5C40.5 31.5457 31.5457 40.5 20.5 40.5C9.45431 40.5 0.5 31.5457 0.5 20.5C0.5 9.4543 9.45431 0.499999 20.5 0.499999Z" stroke="#13172A"/>
<path fill-rule="evenodd" clip-rule="evenodd" d="M31.0654 26.8631C31.0234 26.7397 30.9254 26.5493 30.8554 26.44C30.4143 25.7703 28.0447 23.9055 26.8616 23.2956C26.1861 22.9467 25.6856 22.8304 25.3145 22.9396C24.9155 23.0525 24.7055 23.2392 24.0369 24.0747C23.7674 24.4096 23.4909 24.7233 23.4174 24.7727C23.2354 24.8996 22.8784 25.0018 22.6264 25.0018C22.0418 24.9983 20.9812 24.6176 20.1657 24.117C19.5321 23.7293 18.7201 23.0348 18.0971 22.3474C17.362 21.5402 16.8615 20.8281 16.4659 20.0244C15.9549 18.9915 15.8254 18.3605 16.0389 17.8987C16.0914 17.7824 16.1614 17.659 16.1929 17.6202C16.2244 17.585 16.5535 17.3135 16.9174 17.0174C17.6315 16.4464 17.747 16.316 17.88 15.9247C18.048 15.4276 18.0026 14.92 17.7435 14.4089C17.544 14.0211 17.0225 13.1751 16.6445 12.6287C16.1439 11.9096 14.8978 10.3726 14.6493 10.1646C14.2013 9.79803 13.6273 9.73454 12.9937 9.98135C12.3252 10.2422 11.0721 11.2574 10.5365 11.966C10.0535 12.6075 9.86805 13.0623 9.84002 13.6615C9.81553 14.155 9.85752 14.3595 10.1165 14.9905C12.1432 19.9397 15.1673 23.8914 19.3221 27.0288C21.4923 28.6679 23.7429 29.9158 26.0776 30.7689C27.4391 31.2659 28.0307 31.2906 28.7272 30.8817C29.0212 30.7054 29.7493 29.9546 30.1553 29.4082C30.8274 28.4987 31.0759 28.0792 31.1459 27.7444C31.1949 27.5152 31.1564 27.1169 31.0654 26.8631Z" fill="#13172A"/>
</svg>
