<svg width="40" height="40" viewBox="0 0 40 40" fill="none" xmlns="http://www.w3.org/2000/svg">
<circle cx="20" cy="20" r="19.5" stroke="#13172A"/>
<g clip-path="url(#clip0_165_819)">
<path fill-rule="evenodd" clip-rule="evenodd" d="M20.5778 30.9452L20.5671 30.9471L20.4981 30.9812L20.4787 30.9851L20.4651 30.9812L20.396 30.9471C20.3857 30.9439 20.3779 30.9455 20.3727 30.952L20.3688 30.9617L20.3523 31.3778L20.3571 31.3973L20.3669 31.4099L20.468 31.4819L20.4826 31.4858L20.4942 31.4819L20.5953 31.4099L20.607 31.3944L20.6109 31.3778L20.5944 30.9627C20.5918 30.9523 20.5863 30.9465 20.5778 30.9452ZM20.8355 30.8353L20.8228 30.8373L20.643 30.9277L20.6333 30.9374L20.6303 30.9481L20.6478 31.3662L20.6527 31.3778L20.6605 31.3846L20.8559 31.4751C20.8682 31.4783 20.8776 31.4757 20.8841 31.4673L20.888 31.4537L20.8549 30.8567C20.8517 30.8451 20.8452 30.8379 20.8355 30.8353ZM20.1403 30.8373C20.136 30.8347 20.1309 30.8338 20.126 30.8349C20.1211 30.836 20.1169 30.839 20.1141 30.8431L20.1083 30.8567L20.0752 31.4537C20.0758 31.4653 20.0814 31.4731 20.0917 31.477L20.1063 31.4751L20.3017 31.3846L20.3114 31.3769L20.3153 31.3662L20.3319 30.9481L20.3289 30.9365L20.3192 30.9267L20.1403 30.8373Z" fill="#13172A"/>
<path fill-rule="evenodd" clip-rule="evenodd" d="M20.0005 10.2778C14.631 10.2778 10.2783 14.6305 10.2783 20.0001C10.2783 21.8376 10.7887 23.5584 11.6764 25.0245L10.8092 27.9723C10.7594 28.1415 10.7561 28.3211 10.7997 28.492C10.8433 28.663 10.9321 28.819 11.0568 28.9438C11.1816 29.0685 11.3376 29.1573 11.5086 29.2009C11.6795 29.2445 11.8591 29.2412 12.0283 29.1914L14.9761 28.3242C16.4915 29.241 18.2294 29.7245 20.0005 29.7223C25.3701 29.7223 29.7228 25.3696 29.7228 20.0001C29.7228 14.6305 25.3701 10.2778 20.0005 10.2778ZM17.8014 22.2002C19.7682 24.166 21.6455 24.4256 22.3086 24.4499C23.3168 24.4869 24.2987 23.7169 24.6808 22.8234C24.7286 22.7122 24.7459 22.5902 24.7309 22.47C24.7159 22.3499 24.669 22.2359 24.5953 22.1399C24.0625 21.4594 23.3421 20.9703 22.6382 20.4842C22.4913 20.3824 22.3106 20.3415 22.1342 20.3701C21.9578 20.3988 21.7993 20.4947 21.6922 20.6378L21.1089 21.5274C21.078 21.5751 21.0303 21.6092 20.9752 21.6229C20.9201 21.6366 20.8619 21.6289 20.8123 21.6013C20.4167 21.3748 19.8401 20.9898 19.426 20.5756C19.0118 20.1614 18.6501 19.6112 18.4469 19.2407C18.4223 19.1936 18.4154 19.1391 18.4273 19.0873C18.4393 19.0354 18.4693 18.9895 18.5121 18.9578L19.4104 18.2909C19.539 18.1797 19.622 18.0249 19.6435 17.8563C19.665 17.6876 19.6236 17.517 19.5271 17.377C19.0915 16.7392 18.584 15.9284 17.848 15.3907C17.7529 15.3224 17.6416 15.2797 17.5251 15.2669C17.4086 15.2542 17.2908 15.2717 17.183 15.3178C16.2886 15.7009 15.5147 16.6828 15.5517 17.693C15.576 18.356 15.8355 20.2334 17.8014 22.2002Z" fill="#13172A"/>
</g>
<defs>
<clipPath id="clip0_165_819">
<rect width="23.3333" height="23.3333" fill="white" transform="translate(8.33301 8.3335)"/>
</clipPath>
</defs>
</svg>
