<svg width="40" height="40" viewBox="0 0 40 40" fill="none" xmlns="http://www.w3.org/2000/svg">
<circle cx="20" cy="20" r="20" transform="matrix(-1 0 0 1 40 0)" fill="white"/>
<path d="M28.5303 19.4697C28.8232 19.7626 28.8232 20.2374 28.5303 20.5303L23.7574 25.3033C23.4645 25.5962 22.9896 25.5962 22.6967 25.3033C22.4038 25.0104 22.4038 24.5355 22.6967 24.2426L26.9393 20L22.6967 15.7574C22.4038 15.4645 22.4038 14.9896 22.6967 14.6967C22.9896 14.4038 23.4645 14.4038 23.7574 14.6967L28.5303 19.4697ZM12 20L12 19.25L28 19.25L28 20L28 20.75L12 20.75L12 20Z" fill="#C51535"/>
</svg>
