<svg width="189" height="40" viewBox="0 0 189 40" fill="none" xmlns="http://www.w3.org/2000/svg">
<path d="M20.0879 1.04742C20.558 0.907063 20.8746 0.907063 21.3447 1.04742C21.7155 1.15831 22.1114 1.5098 22.3574 1.75934C22.5207 1.92495 22.6006 2.15179 22.6006 2.38434V4.64996C22.6006 5.08208 22.8785 5.46543 23.2891 5.60016L30.4785 7.95953C31.0427 8.14458 31.6294 7.78399 31.9268 7.27008C32.0457 7.06449 32.1936 6.87866 32.3721 6.77008C32.9774 6.40188 33.5481 6.4627 34.1865 6.77008C34.6726 7.00416 34.9665 7.24514 35.1631 7.74762C35.3417 8.20435 35.3034 8.53347 35.1631 9.00348C35.0523 9.37425 34.7008 9.77007 34.4512 10.0162C34.2856 10.1795 34.0587 10.2593 33.8262 10.2593H23.1816C22.6296 10.2595 22.1819 10.7073 22.1816 11.2593V32.0123C22.1816 32.3138 22.048 32.5838 21.8369 32.7672H28.7861C29.3381 32.7674 29.786 33.2152 29.7861 33.7672V33.8843C29.7862 34.4239 30.2232 34.8609 30.7627 34.8609H30.833C31.3338 34.8611 31.74 35.2674 31.7402 35.7681V35.9078C31.7402 36.3318 32.0838 36.6763 32.5078 36.6763C32.9317 36.6764 33.2754 37.02 33.2754 37.4439V37.7701C33.2752 38.3222 32.8275 38.77 32.2754 38.7701H8.87012C8.31818 38.7698 7.87034 38.322 7.87012 37.7701V37.5132C7.8702 37.0508 8.24555 36.6764 8.70801 36.6763C9.17053 36.6763 9.54586 36.301 9.5459 35.8384V35.7681C9.54614 35.2672 9.95218 34.8609 10.4531 34.8609C10.9541 34.8608 11.3604 34.4547 11.3604 33.9537V33.7672C11.3605 33.215 11.8082 32.7672 12.3604 32.7672H19.1768C18.9657 32.5838 18.832 32.3138 18.832 32.0123V11.2593C18.8318 10.7073 18.3841 10.2595 17.832 10.2593H7.89551C7.7441 10.2593 7.59433 10.2261 7.46289 10.1509C7.12008 9.95489 6.44419 9.51478 6.26855 9.00348C6.10927 8.53973 6.09002 8.20418 6.26855 7.74762C6.4652 7.24508 6.65329 6.93274 7.11914 6.66461C7.64084 6.36435 8.11192 6.39332 8.6543 6.52496C9.17242 6.65075 9.46464 6.93983 9.75879 7.32867C10.0716 7.74206 10.521 8.14479 11.0127 7.98102L18.1484 5.60211C18.5564 5.46593 18.8319 5.08399 18.832 4.65387V2.38434C18.832 2.15176 18.9119 1.92496 19.0752 1.75934C19.3213 1.50977 19.7171 1.15825 20.0879 1.04742ZM15.1289 23.8336C15.1289 23.8336 15.2437 24.3652 15.1289 24.6714C14.9959 25.026 14.7686 25.1643 14.4482 25.3589L14.4316 25.3697C13.9566 25.6584 13.0352 25.649 13.0352 25.649L11.6396 28.3004H3.4043L2.28711 25.649C2.28025 25.6488 1.38296 25.6251 0.891602 25.3697C0.513909 25.1732 0.21033 25.0673 0.0537109 24.6714C-0.066607 24.3673 0.0537109 23.8336 0.0537109 23.8336L6.33496 12.6666C6.33496 12.6666 2.28736 23.8336 2.8457 23.8336H13.0352C13.5935 23.8336 9.8252 12.6666 9.8252 12.6666L15.1289 23.8336ZM40.3057 23.8336C40.3057 23.8336 40.426 24.3673 40.3057 24.6714C40.149 25.0673 39.8455 25.1732 39.4678 25.3697C38.9745 25.6261 38.0723 25.649 38.0723 25.649L36.9561 28.3004H28.7197L27.3242 25.649C27.3242 25.649 26.4039 25.6581 25.9287 25.3697L25.9111 25.3589C25.5908 25.1643 25.3635 25.026 25.2305 24.6714C25.1156 24.3652 25.2305 23.8336 25.2305 23.8336L30.5342 12.6666C30.5342 12.6666 26.7659 23.8336 27.3242 23.8336H37.5137C38.072 23.8336 34.0244 12.6666 34.0244 12.6666L40.3057 23.8336Z" fill="#1D1D1B"/>
<path d="M51.6475 1.5L51.6475 38.3508" stroke="#1D1D1B" stroke-width="3" stroke-linecap="round"/>
<path d="M186.293 15.7263L189 17.6319C187.231 19.8572 184.773 20.9699 181.628 20.9699C179.665 20.9699 177.909 20.5494 176.358 19.7083C174.816 18.8584 173.611 17.6713 172.744 16.1468C171.885 14.6136 171.456 12.8658 171.456 10.9032C171.456 8.91443 171.912 7.15781 172.823 5.63335C173.734 4.1089 174.969 2.94803 176.529 2.15076C178.088 1.34473 179.845 0.941711 181.799 0.941711C183.13 0.941711 184.436 1.19141 185.715 1.6908C186.994 2.18143 187.993 2.89985 188.711 3.84606L186.122 5.89619C185.649 5.24786 185.014 4.75723 184.217 4.4243C183.428 4.09138 182.622 3.92491 181.799 3.92491C179.862 3.92491 178.277 4.59077 177.041 5.92247C175.815 7.25418 175.201 8.91443 175.201 10.9032C175.201 12.9884 175.788 14.6793 176.962 15.976C178.136 17.2727 179.7 17.921 181.654 17.921C182.653 17.921 183.551 17.7282 184.348 17.3427C185.145 16.9485 185.794 16.4097 186.293 15.7263Z" fill="#1D1D1B"/>
<path d="M143.81 10.9032C143.81 8.90567 144.252 7.14905 145.137 5.63335C146.022 4.1089 147.231 2.94803 148.764 2.15076C150.306 1.34473 152.054 0.941711 154.008 0.941711C155.988 0.941711 157.753 1.34473 159.304 2.15076C160.855 2.94803 162.072 4.1089 162.957 5.63335C163.851 7.14905 164.298 8.90567 164.298 10.9032C164.298 12.857 163.855 14.6005 162.97 16.1337C162.086 17.6669 160.859 18.8584 159.291 19.7083C157.731 20.5494 155.97 20.9699 154.008 20.9699C152.562 20.9699 151.208 20.7246 149.947 20.2339C148.685 19.7346 147.603 19.0512 146.701 18.1838C145.807 17.3077 145.102 16.2432 144.585 14.9904C144.068 13.7287 143.81 12.3664 143.81 10.9032ZM147.502 10.9032C147.502 12.9446 148.107 14.6268 149.316 15.9497C150.534 17.2639 152.106 17.921 154.034 17.921C155.97 17.921 157.547 17.2639 158.765 15.9497C159.992 14.6268 160.605 12.9446 160.605 10.9032C160.605 8.90567 159.996 7.24542 158.778 5.92247C157.56 4.59077 155.979 3.92491 154.034 3.92491C152.755 3.92491 151.611 4.23594 150.604 4.85798C149.605 5.47127 148.839 6.30797 148.304 7.36808C147.77 8.41943 147.502 9.59781 147.502 10.9032Z" fill="#1D1D1B"/>
<path d="M118.397 20.4838H115.164V1.4281H115.192L125.355 9.1893H125.433L135.688 1.4281H135.718V20.4838H132.301L132.354 8.05723H132.301L125.355 13.2745H125.276L118.45 8.05723H118.397V20.4838Z" fill="#1D1D1B"/>
<path d="M86.5977 10.9032C86.5977 8.90567 87.0401 7.14905 87.925 5.63335C88.8099 4.1089 90.0189 2.94803 91.5521 2.15076C93.0941 1.34473 94.842 0.941711 96.7957 0.941711C98.7758 0.941711 100.541 1.34473 102.092 2.15076C103.643 2.94803 104.86 4.1089 105.745 5.63335C106.639 7.14905 107.086 8.90567 107.086 10.9032C107.086 12.857 106.643 14.6005 105.758 16.1337C104.874 17.6669 103.647 18.8584 102.079 19.7083C100.519 20.5494 98.7583 20.9699 96.7957 20.9699C95.3501 20.9699 93.9965 20.7246 92.7349 20.2339C91.4733 19.7346 90.3913 19.0512 89.4889 18.1838C88.5952 17.3077 87.8899 16.2432 87.373 14.9904C86.8561 13.7287 86.5977 12.3664 86.5977 10.9032ZM90.2905 10.9032C90.2905 12.9446 90.895 14.6268 92.1041 15.9497C93.3219 17.2639 94.8945 17.921 96.822 17.921C98.7583 17.921 100.335 17.2639 101.553 15.9497C102.78 14.6268 103.393 12.9446 103.393 10.9032C103.393 8.90567 102.784 7.24542 101.566 5.92247C100.348 4.59077 98.767 3.92491 96.822 3.92491C95.5429 3.92491 94.3995 4.23594 93.392 4.85798C92.3932 5.47127 91.6266 6.30797 91.0922 7.36808C90.5577 8.41943 90.2905 9.59781 90.2905 10.9032Z" fill="#1D1D1B"/>
<path d="M66.2051 20.4838H62.8145V1.4281H66.2051V9.12923H75.1152V1.4281H78.5058V20.4838H75.1152V12.0336H66.2051V20.4838Z" fill="#1D1D1B"/>
<path d="M180.881 27.7853H181.795V32.0533C181.795 32.2347 181.792 32.4343 181.785 32.6521C181.785 32.8626 181.781 33.0731 181.774 33.2836C181.766 33.4941 181.756 33.6828 181.741 33.8498C181.734 34.0094 181.726 34.1328 181.719 34.2199H181.763L186.042 27.7853H187.13V35.5591H186.216V31.3347C186.216 31.1387 186.219 30.9282 186.227 30.7032C186.234 30.4709 186.241 30.2495 186.249 30.039C186.263 29.8213 186.274 29.6289 186.281 29.462C186.288 29.295 186.296 29.1717 186.303 29.0918H186.259L181.97 35.5591H180.881V27.7853Z" fill="#1D1D1B"/>
<path d="M179.766 27.7853V28.6563H176.358V35.5591H175.378V27.7853H179.766Z" fill="#1D1D1B"/>
<path d="M172.057 33.3489C171.825 33.8643 171.589 34.2962 171.349 34.6446C171.117 34.9857 170.841 35.2434 170.522 35.4176C170.202 35.5845 169.796 35.668 169.302 35.668C169.099 35.668 168.907 35.6535 168.725 35.6245C168.551 35.5954 168.391 35.5555 168.246 35.5047V34.5357C168.391 34.601 168.548 34.6554 168.714 34.699C168.881 34.7353 169.056 34.7534 169.237 34.7534C169.506 34.7534 169.734 34.7171 169.923 34.6446C170.119 34.5647 170.29 34.4377 170.435 34.2635C170.587 34.0893 170.729 33.857 170.859 33.5667L167.865 27.7853H168.943L171.11 32.0642C171.139 32.115 171.168 32.1767 171.197 32.2493C171.226 32.3146 171.255 32.3835 171.284 32.4561C171.32 32.5287 171.349 32.5977 171.371 32.663H171.415C171.436 32.6122 171.458 32.5541 171.48 32.4888C171.509 32.4162 171.534 32.3472 171.556 32.2819C171.585 32.2093 171.611 32.1476 171.632 32.0968L173.505 27.7853H174.539L172.057 33.3489Z" fill="#1D1D1B"/>
<path d="M166.907 35.5591H165.927V28.6454H163.467C163.416 29.0446 163.361 29.4656 163.303 29.9084C163.245 30.3439 163.184 30.7758 163.118 31.204C163.06 31.6323 163.002 32.0351 162.944 32.4126C162.886 32.79 162.828 33.1203 162.77 33.4034C162.675 33.8897 162.559 34.3034 162.421 34.6446C162.283 34.9857 162.098 35.2434 161.866 35.4176C161.641 35.5918 161.344 35.6789 160.973 35.6789C160.85 35.6789 160.723 35.6644 160.592 35.6353C160.469 35.6136 160.36 35.5845 160.266 35.5482V34.7317C160.345 34.768 160.436 34.8006 160.538 34.8296C160.639 34.8514 160.748 34.8623 160.864 34.8623C161.082 34.8623 161.253 34.7752 161.376 34.601C161.507 34.4195 161.608 34.1982 161.681 33.9369C161.754 33.6683 161.815 33.4034 161.866 33.142C161.91 32.9316 161.96 32.6521 162.019 32.3037C162.077 31.948 162.138 31.5343 162.204 31.0625C162.276 30.5907 162.349 30.079 162.421 29.5273C162.501 28.9684 162.577 28.3877 162.65 27.7853H166.907V35.5591Z" fill="#1D1D1B"/>
<path d="M157.981 28.5363C157.568 28.5363 157.194 28.6089 156.86 28.7541C156.526 28.892 156.243 29.0989 156.011 29.3747C155.778 29.6433 155.601 29.9735 155.477 30.3655C155.354 30.7502 155.292 31.1857 155.292 31.672C155.292 32.3108 155.39 32.866 155.586 33.3378C155.789 33.8096 156.087 34.1726 156.479 34.4266C156.878 34.6807 157.375 34.8077 157.971 34.8077C158.312 34.8077 158.635 34.7786 158.94 34.7206C159.244 34.6625 159.542 34.5899 159.832 34.5028V35.3521C159.542 35.4609 159.241 35.5408 158.929 35.5916C158.624 35.6424 158.257 35.6678 157.829 35.6678C157.038 35.6678 156.377 35.5045 155.847 35.1779C155.318 34.8512 154.918 34.3867 154.65 33.7842C154.388 33.1818 154.258 32.4741 154.258 31.6611C154.258 31.0732 154.338 30.5361 154.497 30.0497C154.664 29.5634 154.904 29.1424 155.216 28.7868C155.535 28.4311 155.927 28.1589 156.392 27.9702C156.856 27.7742 157.39 27.6762 157.992 27.6762C158.392 27.6762 158.776 27.7161 159.146 27.796C159.517 27.8758 159.847 27.9883 160.137 28.1335L159.745 28.961C159.506 28.8521 159.237 28.7541 158.94 28.667C158.649 28.5799 158.33 28.5363 157.981 28.5363Z" fill="#1D1D1B"/>
<path d="M151.435 33.3489C151.203 33.8643 150.967 34.2962 150.727 34.6446C150.495 34.9857 150.219 35.2434 149.9 35.4176C149.58 35.5845 149.174 35.668 148.68 35.668C148.477 35.668 148.285 35.6535 148.103 35.6245C147.929 35.5954 147.769 35.5555 147.624 35.5047V34.5357C147.769 34.601 147.925 34.6554 148.092 34.699C148.259 34.7353 148.434 34.7534 148.615 34.7534C148.884 34.7534 149.112 34.7171 149.301 34.6446C149.497 34.5647 149.668 34.4377 149.813 34.2635C149.965 34.0893 150.107 33.857 150.237 33.5667L147.243 27.7853H148.321L150.488 32.0642C150.517 32.115 150.546 32.1767 150.575 32.2493C150.604 32.3146 150.633 32.3835 150.662 32.4561C150.698 32.5287 150.727 32.5977 150.749 32.663H150.793C150.814 32.6122 150.836 32.5541 150.858 32.4888C150.887 32.4162 150.912 32.3472 150.934 32.2819C150.963 32.2093 150.989 32.1476 151.01 32.0968L152.883 27.7853H153.917L151.435 33.3489Z" fill="#1D1D1B"/>
<path d="M143.943 35.5591H139.599V27.7853H143.943V28.6454H140.579V31.0734H143.747V31.9226H140.579V34.699H143.943V35.5591Z" fill="#1D1D1B"/>
<path d="M131.47 27.7853H132.384V32.0533C132.384 32.2347 132.381 32.4343 132.373 32.6521C132.373 32.8626 132.37 33.0731 132.363 33.2836C132.355 33.4941 132.344 33.6828 132.33 33.8498C132.323 34.0094 132.315 34.1328 132.308 34.2199H132.352L136.631 27.7853H137.719V35.5591H136.805V31.3347C136.805 31.1387 136.808 30.9282 136.816 30.7032C136.823 30.4709 136.83 30.2495 136.837 30.039C136.852 29.8213 136.863 29.6289 136.87 29.462C136.877 29.295 136.885 29.1717 136.892 29.0918H136.848L132.558 35.5591H131.47V27.7853Z" fill="#1D1D1B"/>
<path d="M130.619 35.5591H129.443L125.926 31.6178V35.5591H124.946V27.7853H125.926V31.5524L129.356 27.7853H130.466L127.091 31.5633L130.619 35.5591Z" fill="#1D1D1B"/>
<path d="M121.616 28.5363C121.202 28.5363 120.829 28.6089 120.495 28.7541C120.161 28.892 119.878 29.0989 119.646 29.3747C119.413 29.6433 119.235 29.9735 119.112 30.3655C118.989 30.7502 118.927 31.1857 118.927 31.672C118.927 32.3108 119.025 32.866 119.221 33.3378C119.424 33.8096 119.722 34.1726 120.114 34.4266C120.513 34.6807 121.01 34.8077 121.605 34.8077C121.946 34.8077 122.269 34.7786 122.574 34.7206C122.879 34.6625 123.177 34.5899 123.467 34.5028V35.3521C123.177 35.4609 122.876 35.5408 122.563 35.5916C122.259 35.6424 121.892 35.6678 121.464 35.6678C120.673 35.6678 120.012 35.5045 119.482 35.1779C118.952 34.8512 118.553 34.3867 118.285 33.7842C118.023 33.1818 117.893 32.4741 117.893 31.6611C117.893 31.0732 117.972 30.5361 118.132 30.0497C118.299 29.5634 118.539 29.1424 118.851 28.7868C119.17 28.4311 119.562 28.1589 120.027 27.9702C120.491 27.7742 121.025 27.6762 121.627 27.6762C122.026 27.6762 122.411 27.7161 122.781 27.796C123.151 27.8758 123.482 27.9883 123.772 28.1335L123.38 28.961C123.14 28.8521 122.872 28.7541 122.574 28.667C122.284 28.5799 121.965 28.5363 121.616 28.5363Z" fill="#1D1D1B"/>
<path d="M116.796 35.5591H112.452V27.7853H116.796V28.6454H113.432V31.0734H116.6V31.9226H113.432V34.699H116.796V35.5591Z" fill="#1D1D1B"/>
<path d="M110.555 35.5591H109.575V32.369C109.154 32.5142 108.759 32.634 108.389 32.7283C108.026 32.8154 107.619 32.859 107.169 32.859C106.443 32.859 105.881 32.692 105.482 32.3581C105.082 32.017 104.883 31.527 104.883 30.8883V27.7853H105.863V30.7467C105.863 31.1677 105.972 31.4835 106.189 31.694C106.414 31.8972 106.774 31.9988 107.267 31.9988C107.695 31.9988 108.08 31.9589 108.421 31.8791C108.762 31.7992 109.147 31.6903 109.575 31.5524V27.7853H110.555V35.5591Z" fill="#1D1D1B"/>
<path d="M96.9395 27.7853H97.854V32.0533C97.854 32.2347 97.8504 32.4343 97.8431 32.6521C97.8431 32.8626 97.8395 33.0731 97.8322 33.2836C97.825 33.4941 97.8141 33.6828 97.7996 33.8498C97.7923 34.0094 97.7851 34.1328 97.7778 34.2199H97.8214L102.1 27.7853H103.189V35.5591H102.274V31.3347C102.274 31.1387 102.278 30.9282 102.285 30.7032C102.293 30.4709 102.3 30.2495 102.307 30.039C102.322 29.8213 102.333 29.6289 102.34 29.462C102.347 29.295 102.354 29.1717 102.362 29.0918H102.318L98.0282 35.5591H96.9395V27.7853Z" fill="#1D1D1B"/>
<path d="M94.8557 27.7853V34.6881H95.8465V37.606H94.9102V35.5591H89.5643V37.606H88.6279V34.6881H89.2268C89.4881 34.2381 89.7348 33.7336 89.9671 33.1747C90.2067 32.6158 90.4171 32.0315 90.5986 31.4218C90.7801 30.8048 90.9289 30.1878 91.045 29.5709C91.1611 28.9539 91.2337 28.3587 91.2628 27.7853H94.8557ZM92.1229 28.6672C92.0939 29.0882 92.0213 29.5636 91.9051 30.0935C91.7963 30.6234 91.6547 31.1677 91.4805 31.7266C91.3136 32.2783 91.1249 32.8118 90.9144 33.3271C90.7111 33.8425 90.4934 34.2962 90.2611 34.6881H93.8867V28.6672H92.1229Z" fill="#1D1D1B"/>
<path d="M81.4902 27.7853H82.4048V32.0533C82.4048 32.2347 82.4012 32.4343 82.3939 32.6521C82.3939 32.8626 82.3903 33.0731 82.383 33.2836C82.3758 33.4941 82.3649 33.6828 82.3504 33.8498C82.3431 34.0094 82.3358 34.1328 82.3286 34.2199H82.3721L86.651 27.7853H87.7398V35.5591H86.8252V31.3347C86.8252 31.1387 86.8289 30.9282 86.8361 30.7032C86.8434 30.4709 86.8506 30.2495 86.8579 30.039C86.8724 29.8213 86.8833 29.6289 86.8906 29.462C86.8978 29.295 86.9051 29.1717 86.9123 29.0918H86.8688L82.579 35.5591H81.4902V27.7853Z" fill="#1D1D1B"/>
<path d="M77.1623 27.7853C78.1785 27.7853 78.9188 27.9849 79.3834 28.3841C79.8479 28.7833 80.0802 29.3459 80.0802 30.0717C80.0802 30.3911 80.0258 30.6996 79.9169 30.9972C79.8153 31.2875 79.6447 31.5488 79.4052 31.7811C79.1656 32.0134 78.8462 32.1984 78.447 32.3364C78.0478 32.467 77.5579 32.5323 76.9772 32.5323H76.0844V35.5591H75.1045V27.7853H77.1623ZM77.0752 28.6236H76.0844V31.694H76.8683C77.3619 31.694 77.772 31.6432 78.0986 31.5416C78.4253 31.4327 78.6684 31.2621 78.8281 31.0298C78.9878 30.7976 79.0676 30.4927 79.0676 30.1153C79.0676 29.6144 78.9079 29.2406 78.5886 28.9938C78.2692 28.747 77.7647 28.6236 77.0752 28.6236Z" fill="#1D1D1B"/>
<path d="M73.5939 31.6615C73.5939 32.264 73.5213 32.812 73.3761 33.3056C73.2309 33.7991 73.0132 34.2238 72.7228 34.5794C72.4325 34.9278 72.0732 35.1964 71.6449 35.3851C71.224 35.5738 70.7304 35.6682 70.1642 35.6682C69.4238 35.6682 68.7996 35.5158 68.2915 35.2109C67.7907 34.9061 67.406 34.4742 67.1374 33.9153C66.8689 33.3564 66.7201 32.6958 66.691 31.9337H64.851V35.5593H63.8711V27.7855H64.851V31.0736H66.7128C66.7636 30.384 66.9233 29.7852 67.1919 29.2771C67.4604 28.7617 67.8415 28.3662 68.3351 28.0903C68.8286 27.8073 69.4311 27.6657 70.1424 27.6657C70.8901 27.6657 71.5179 27.8327 72.026 28.1665C72.5414 28.4932 72.9297 28.9577 73.191 29.5602C73.4596 30.1554 73.5939 30.8558 73.5939 31.6615ZM67.7145 31.6615C67.7145 32.3148 67.7979 32.8773 67.9649 33.3491C68.1391 33.8209 68.404 34.1838 68.7597 34.4379C69.1226 34.6919 69.5799 34.819 70.1315 34.819C70.6977 34.819 71.1586 34.6919 71.5143 34.4379C71.8772 34.1838 72.1422 33.8209 72.3091 33.3491C72.4833 32.8773 72.5704 32.3148 72.5704 31.6615C72.5704 31.0082 72.4869 30.4493 72.32 29.9848C72.153 29.513 71.8917 29.1537 71.5361 28.9069C71.1804 28.6529 70.7195 28.5258 70.1533 28.5258C69.5944 28.5258 69.1335 28.6529 68.7706 28.9069C68.4077 29.1537 68.1391 29.513 67.9649 29.9848C67.7979 30.4493 67.7145 31.0082 67.7145 31.6615Z" fill="#1D1D1B"/>
</svg>
